<svg width="33" height="33" viewBox="0 0 33 33" fill="none" xmlns="http://www.w3.org/2000/svg">
<path d="M26.2285 11.3192H6.22852C5.67623 11.3192 5.22852 11.7799 5.22852 12.3482V26.7545C5.22852 27.3228 5.67623 27.7835 6.22852 27.7835H26.2285C26.7808 27.7835 27.2285 27.3228 27.2285 26.7545V12.3482C27.2285 11.7799 26.7808 11.3192 26.2285 11.3192Z" stroke="#C4C4CC" stroke-width="2.05804" stroke-linecap="round" stroke-linejoin="round"/>
<path d="M11.7285 11.3192V6.68862C11.7285 5.46051 12.2026 4.2827 13.0465 3.4143C13.8904 2.5459 15.035 2.05804 16.2285 2.05804C17.422 2.05804 18.5666 2.5459 19.4105 3.4143C20.2544 4.2827 20.7285 5.46051 20.7285 6.68862V11.3192" stroke="#C4C4CC" stroke-width="2.05804" stroke-linecap="round" stroke-linejoin="round"/>
<path d="M16.2285 21.0949C17.0569 21.0949 17.7285 20.4038 17.7285 19.5513C17.7285 18.6989 17.0569 18.0078 16.2285 18.0078C15.4001 18.0078 14.7285 18.6989 14.7285 19.5513C14.7285 20.4038 15.4001 21.0949 16.2285 21.0949Z" fill="#C4C4CC"/>
</svg>
