<svg width="33" height="33" viewBox="0 0 33 33" fill="none" xmlns="http://www.w3.org/2000/svg">
<path d="M27.6147 6.17411H5.61475C5.06246 6.17411 4.61475 6.63482 4.61475 7.20313V25.7254C4.61475 26.2938 5.06246 26.7545 5.61475 26.7545H27.6147C28.167 26.7545 28.6147 26.2938 28.6147 25.7254V7.20313C28.6147 6.63482 28.167 6.17411 27.6147 6.17411Z" stroke="#C4C4CC" stroke-width="2.06051" stroke-linecap="round" stroke-linejoin="round"/>
<path d="M4.61475 21.6094L10.9022 15.1394C10.9953 15.0422 11.1062 14.965 11.2285 14.9123C11.3508 14.8596 11.4821 14.8324 11.6147 14.8324C11.7474 14.8324 11.8786 14.8596 12.001 14.9123C12.1233 14.965 12.2342 15.0422 12.3272 15.1394L17.9022 20.8762C17.9953 20.9734 18.1062 21.0506 18.2285 21.1033C18.3508 21.156 18.4821 21.1832 18.6147 21.1832C18.7474 21.1832 18.8786 21.156 19.001 21.1033C19.1233 21.0506 19.2342 20.9734 19.3272 20.8762L21.9022 18.2265C21.9953 18.1293 22.1062 18.052 22.2285 17.9993C22.3508 17.9466 22.4821 17.9195 22.6147 17.9195C22.7474 17.9195 22.8786 17.9466 23.001 17.9993C23.1233 18.052 23.2342 18.1293 23.3272 18.2265L28.6147 23.6674" stroke="#C4C4CC" stroke-width="2.06051" stroke-linecap="round" stroke-linejoin="round"/>
<path d="M20.1147 14.4063C20.9432 14.4063 21.6147 13.7152 21.6147 12.8627C21.6147 12.0103 20.9432 11.3192 20.1147 11.3192C19.2863 11.3192 18.6147 12.0103 18.6147 12.8627C18.6147 13.7152 19.2863 14.4063 20.1147 14.4063Z" fill="#C4C4CC"/>
</svg>
