<svg width="33" height="32" viewBox="0 0 33 32" fill="none" xmlns="http://www.w3.org/2000/svg">
<g clip-path="url(#clip0_28_505)">
<path d="M12.0713 19.5C12.8997 19.5 13.5713 18.8284 13.5713 18C13.5713 17.1716 12.8997 16.5 12.0713 16.5C11.2429 16.5 10.5713 17.1716 10.5713 18C10.5713 18.8284 11.2429 19.5 12.0713 19.5Z" fill="#C4C4CC"/>
<path d="M20.0713 19.5C20.8997 19.5 21.5713 18.8284 21.5713 18C21.5713 17.1716 20.8997 16.5 20.0713 16.5C19.2429 16.5 18.5713 17.1716 18.5713 18C18.5713 18.8284 19.2429 19.5 20.0713 19.5Z" fill="#C4C4CC"/>
<path d="M9.37109 10C11.5389 9.32061 13.7994 8.98323 16.0711 9.00003C18.3428 8.98323 20.6033 9.32061 22.7711 10" stroke="#C4C4CC" stroke-width="2.05804" stroke-linecap="round" stroke-linejoin="round"/>
<path d="M22.7711 22C20.6033 22.6794 18.3428 23.0168 16.0711 23C13.7994 23.0168 11.5389 22.6794 9.37109 22" stroke="#C4C4CC" stroke-width="2.05804" stroke-linecap="round" stroke-linejoin="round"/>
<path d="M19.4465 22.7625L20.959 25.7625C21.0563 25.9671 21.2218 26.1314 21.4271 26.2272C21.6324 26.323 21.8647 26.3444 22.084 26.2875C25.1465 25.5375 27.7965 24.2375 29.7215 22.5625C29.8666 22.4345 29.972 22.2675 30.0252 22.0815C30.0783 21.8954 30.0771 21.6979 30.0215 21.5125L25.784 7.36254C25.7427 7.21773 25.6681 7.08462 25.5661 6.9739C25.464 6.86318 25.3374 6.77795 25.1965 6.72504C23.9993 6.23388 22.7612 5.84906 21.4965 5.57504C21.2534 5.52181 20.9993 5.55994 20.7826 5.68213C20.5659 5.80433 20.4017 6.00204 20.3215 6.23754L19.334 9.22504" stroke="#C4C4CC" stroke-width="2.05804" stroke-linecap="round" stroke-linejoin="round"/>
<path d="M12.6963 22.7625L11.1838 25.7625C11.0864 25.9671 10.9209 26.1314 10.7156 26.2272C10.5103 26.323 10.2781 26.3444 10.0588 26.2875C6.99626 25.5375 4.34626 24.2375 2.42126 22.5625C2.27613 22.4345 2.17074 22.2675 2.11757 22.0815C2.0644 21.8954 2.06568 21.6979 2.12126 21.5125L6.35876 7.36254C6.4 7.21773 6.47464 7.08462 6.57667 6.9739C6.67871 6.86318 6.80529 6.77795 6.94626 6.72504C8.14346 6.23388 9.38157 5.84906 10.6463 5.57504C10.8893 5.52181 11.1434 5.55994 11.3601 5.68213C11.5769 5.80433 11.741 6.00204 11.8213 6.23754L12.8088 9.22504" stroke="#C4C4CC" stroke-width="2.05804" stroke-linecap="round" stroke-linejoin="round"/>
<path d="M12.0713 19.5C12.8997 19.5 13.5713 18.8284 13.5713 18C13.5713 17.1716 12.8997 16.5 12.0713 16.5C11.2429 16.5 10.5713 17.1716 10.5713 18C10.5713 18.8284 11.2429 19.5 12.0713 19.5Z" fill="#C4C4CC"/>
<path d="M20.0713 19.5C20.8997 19.5 21.5713 18.8284 21.5713 18C21.5713 17.1716 20.8997 16.5 20.0713 16.5C19.2429 16.5 18.5713 17.1716 18.5713 18C18.5713 18.8284 19.2429 19.5 20.0713 19.5Z" fill="#C4C4CC"/>
<path d="M9.37109 10C11.5389 9.32061 13.7994 8.98323 16.0711 9.00003C18.3428 8.98323 20.6033 9.32061 22.7711 10" stroke="#C4C4CC" stroke-width="2.05804" stroke-linecap="round" stroke-linejoin="round"/>
<path d="M22.7711 22C20.6033 22.6794 18.3428 23.0168 16.0711 23C13.7994 23.0168 11.5389 22.6794 9.37109 22" stroke="#C4C4CC" stroke-width="2.05804" stroke-linecap="round" stroke-linejoin="round"/>
<path d="M19.4465 22.7625L20.959 25.7625C21.0563 25.9671 21.2218 26.1314 21.4271 26.2272C21.6324 26.323 21.8647 26.3444 22.084 26.2875C25.1465 25.5375 27.7965 24.2375 29.7215 22.5625C29.8666 22.4345 29.972 22.2675 30.0252 22.0815C30.0783 21.8954 30.0771 21.6979 30.0215 21.5125L25.784 7.36254C25.7427 7.21773 25.6681 7.08462 25.5661 6.9739C25.464 6.86318 25.3374 6.77795 25.1965 6.72504C23.9993 6.23388 22.7612 5.84906 21.4965 5.57504C21.2534 5.52181 20.9993 5.55994 20.7826 5.68213C20.5659 5.80433 20.4017 6.00204 20.3215 6.23754L19.334 9.22504" stroke="#C4C4CC" stroke-width="2.05804" stroke-linecap="round" stroke-linejoin="round"/>
<path d="M12.6963 22.7625L11.1838 25.7625C11.0864 25.9671 10.9209 26.1314 10.7156 26.2272C10.5103 26.323 10.2781 26.3444 10.0588 26.2875C6.99626 25.5375 4.34626 24.2375 2.42126 22.5625C2.27613 22.4345 2.17074 22.2675 2.11757 22.0815C2.0644 21.8954 2.06568 21.6979 2.12126 21.5125L6.35876 7.36254C6.4 7.21773 6.47464 7.08462 6.57667 6.9739C6.67871 6.86318 6.80529 6.77795 6.94626 6.72504C8.14346 6.23388 9.38157 5.84906 10.6463 5.57504C10.8893 5.52181 11.1434 5.55994 11.3601 5.68213C11.5769 5.80433 11.741 6.00204 11.8213 6.23754L12.8088 9.22504" stroke="#C4C4CC" stroke-width="2.05804" stroke-linecap="round" stroke-linejoin="round"/>
</g>
<defs>
<clipPath id="clip0_28_505">
<rect width="32" height="32" fill="white" transform="translate(0.0712891)"/>
</clipPath>
</defs>
</svg>
